<?xml version="1.0" standalone="no"?>
<!DOCTYPE svg PUBLIC "-//W3C//DTD SVG 20010904//EN"
 "http://www.w3.org/TR/2001/REC-SVG-20010904/DTD/svg10.dtd">
<svg version="1.0" xmlns="http://www.w3.org/2000/svg"
 width="260.000000pt" height="260.000000pt" viewBox="0 0 260.000000 260.000000"
 preserveAspectRatio="xMidYMid meet">
<metadata>
Created by potrace 1.11, written by Peter Selinger 2001-2013
</metadata>
<g transform="translate(0.000000,260.000000) scale(0.100000,-0.100000)"
fill="#000000" stroke="none">
<path d="M1355 2559 c-11 -4 -33 -8 -48 -8 -33 -1 -158 -38 -196 -57 -14 -8
-38 -14 -52 -14 -38 0 -140 -37 -164 -59 -11 -11 -54 -33 -95 -49 -75 -29
-249 -136 -305 -189 -17 -15 -43 -45 -59 -65 -16 -21 -35 -38 -42 -38 -8 0
-14 -8 -14 -19 0 -10 -11 -26 -25 -35 -15 -10 -26 -29 -31 -53 -8 -48 -80
-173 -99 -173 -15 0 -48 -63 -60 -115 -12 -53 -24 -268 -18 -324 7 -65 -9 -63
-26 3 -17 69 -31 66 -31 -6 0 -47 -3 -59 -11 -48 -19 27 -4 -126 15 -155 15
-23 15 -26 1 -31 -12 -5 -14 -14 -9 -38 3 -17 9 -35 13 -41 4 -5 16 -36 27
-69 13 -40 26 -62 42 -69 16 -7 22 -19 22 -42 0 -46 49 -112 123 -169 36 -26
79 -68 97 -92 18 -23 80 -84 136 -134 103 -90 121 -119 94 -146 -14 -14 151
-151 201 -165 24 -8 38 -17 35 -24 -3 -9 8 -11 40 -7 36 4 44 2 44 -12 0 -9
-7 -19 -15 -22 -30 -12 -14 -22 26 -17 29 4 44 2 50 -8 7 -10 11 -11 17 -2 4
6 33 18 65 26 56 15 59 15 78 -4 19 -19 19 -19 14 3 -3 16 5 34 29 62 32 38
36 39 61 28 33 -15 40 -11 26 16 -16 31 -3 55 25 48 32 -8 30 5 -2 25 -32 19
-42 70 -19 89 8 7 15 23 15 35 0 16 8 26 28 33 l27 10 -26 1 c-33 1 -55 34
-57 84 -2 51 -13 67 -25 36 l-10 -24 -6 30 c-5 24 -11 30 -35 32 -16 1 -39 12
-51 23 -22 21 -24 21 -34 3 -11 -17 -11 -17 -22 0 -10 18 -11 18 -25 0 -13
-17 -15 -17 -38 9 -28 32 -36 34 -36 14 0 -26 -22 -30 -40 -7 -14 20 -18 21
-29 7 -7 -8 -19 -12 -27 -9 -9 3 -14 -2 -14 -16 0 -24 -11 -26 -43 -9 -12 6
-31 11 -43 12 -25 1 -155 99 -220 166 -27 27 -48 61 -55 85 -6 22 -18 51 -27
65 -12 18 -15 43 -13 91 2 41 -2 69 -8 74 -6 3 -9 11 -5 16 3 5 2 15 -4 22 -5
7 -15 33 -22 59 -10 39 -10 54 0 79 11 25 11 32 0 39 -21 13 -25 148 -7 206 9
27 17 81 20 120 3 62 8 77 34 110 54 68 205 206 261 239 18 11 32 23 32 27 0
4 6 8 14 8 7 0 19 7 26 15 10 12 10 15 -4 15 -21 0 -20 18 3 56 15 25 36 37
107 62 114 41 228 55 379 47 149 -7 276 -23 292 -36 7 -7 25 -6 50 1 35 10 43
8 103 -22 76 -39 180 -108 180 -118 0 -5 -12 -12 -27 -18 -56 -20 -126 -114
-157 -209 -11 -34 -30 -63 -50 -80 -26 -23 -36 -42 -50 -100 -13 -53 -14 -77
-7 -92 21 -38 13 -81 -18 -107 -35 -29 -53 -79 -56 -154 -3 -60 -6 -74 -29
-139 -17 -48 -33 -71 -47 -71 -8 0 -89 161 -89 176 0 2 -16 37 -34 77 -22 45
-38 95 -42 135 -5 48 -11 65 -26 73 -11 6 -26 26 -34 45 -17 41 -26 42 -48 9
-9 -14 -25 -25 -35 -25 -14 0 -27 -22 -55 -91 -20 -50 -36 -98 -36 -107 0 -27
-57 -194 -68 -201 -6 -3 -20 -29 -31 -58 -29 -74 -114 -223 -127 -223 -10 0
-20 193 -25 455 0 10 -5 25 -10 32 -6 7 -10 60 -10 125 2 226 -2 267 -26 293
-29 33 -42 32 -97 -10 -56 -44 -62 -76 -26 -138 12 -20 27 -86 40 -177 12 -80
23 -154 26 -165 2 -11 6 -40 9 -65 3 -25 10 -74 15 -110 6 -36 12 -146 15
-244 3 -99 7 -188 11 -198 3 -11 15 -18 29 -18 39 0 166 195 232 354 29 71 59
153 68 181 18 64 35 81 65 65 18 -10 21 -17 15 -49 -5 -28 -2 -43 9 -54 9 -9
16 -24 16 -34 0 -10 11 -35 24 -57 14 -21 22 -44 20 -51 -10 -25 148 -252 193
-279 22 -12 79 0 113 24 38 27 115 157 136 227 8 29 22 66 30 83 22 42 54 155
64 220 4 30 13 80 18 110 6 30 16 88 22 129 6 41 17 88 24 105 8 17 38 104 67
193 30 89 58 163 63 163 11 0 86 -82 86 -95 0 -6 11 -30 24 -55 40 -77 66
-212 74 -386 l7 -159 16 44 c26 76 41 65 35 -25 -5 -85 -30 -237 -45 -276 -5
-13 -7 -36 -4 -50 4 -20 -14 -53 -87 -157 -50 -72 -96 -133 -100 -136 -5 -3
-7 -12 -4 -19 3 -8 -13 -33 -36 -56 -22 -23 -51 -58 -64 -78 -30 -46 -59 -73
-127 -118 -62 -40 -34 -36 53 7 68 34 119 77 148 125 13 20 30 34 42 34 11 0
33 14 49 31 19 20 36 29 51 27 17 -2 29 6 46 29 17 24 33 35 61 39 31 5 43 13
57 40 10 19 26 34 35 34 20 0 74 80 128 191 41 85 41 86 41 202 0 66 -4 118
-10 122 -16 10 -11 41 9 59 18 16 20 30 17 140 -3 120 -4 125 -50 242 -123
309 -196 418 -351 515 -55 34 -159 75 -225 89 -107 21 -241 70 -285 104 -18
14 -18 15 -2 16 33 0 17 18 -23 25 -22 4 -38 11 -35 15 3 5 -16 12 -42 16 -27
3 -52 10 -58 14 -17 12 -79 18 -100 9z"/>
</g>
</svg>
